{"title":"The Butterfly Effect-Directors Cut .2004. [x264][AC3] Nordic_Sub","uid":5375635,"size":1695052169,"categoryP":"video","categoryS":"movies","magnet":"?xt=urn:btih:8a4d001ac7f73874ab55f8e0db88c40f44b57bd2&amp;dn=The+Butterfly+Effect-Directors+Cut+.2004.+%5Bx264%5D%5BAC3%5D+Nordic_Sub&amp;tr=udp%3A%2F%2Ftracker.openbittorrent.com%3A80&amp;tr=udp%3A%2F%2Fopen.demonii.com%3A1337&amp;tr=udp%3A%2F%2Ftracker.coppersurfer.tk%3A6969&amp;tr=udp%3A%2F%2Fexodus.desync.com%3A6969","seeders":0,"leechers":1,"uploader":"Zen_Bud","files":-1,"time":1266569164,"description":"General\nComplete name                    : The Butterfly Effect - Director's Cut.mkv\nFormat                           : Matroska\nFile size                        : 1.58 GiB\nDuration                         : 1h 54mn\nOverall bit rate                 : 1 971 Kbps\n\n\nVideo\nID                               : 1\nFormat                           : AVC\nDuration                         : 1h 54mn\nBit rate                         : 1 355 Kbps\nWidth                            : 720 pixels\nHeight                           : 552 pixels\nDisplay aspect ratio             : 1.855\nFrame rate                       : 25.000 fps\nResolution                       : 8 bits\nColorimetry                      : 4:2:0\nScan type                        : Progressive\nBits/(Pixel*Frame)               : 0.136\nStream size                      : 1.09 GiB (69%)\nWriting library                  : x264 core 79\n \n\nAudio #1\nID                               : 2\nFormat                           : AC-3\nFormat/Info                      : Audio Coding 3\nCodec ID                         : A_AC3\nDuration                         : 1h 54mn\nBit rate mode                    : Constant\nBit rate                         : 448 Kbps\nChannel(s)                       : 6 channels\nChannel positions                : Front: L C R, Surround: L R, LFE\nSampling rate                    : 48.0 KHz\nStream size                      : 368 MiB (23%)\nLanguage                         : English\n\nAudio #2\nID                               : Directors Commentary !\nFormat                           : MPEG Audio\nFormat version                   : Version 1\nFormat profile                   : Layer 3\nMode                             : Joint stereo\nCodec ID                         : A_MPEG/L3\nCodec ID/Hint                    : MP3\nDuration                         : 1h 54mn\nBit rate mode                    : Constant\nBit rate                         : 128 Kbps\nChannel(s)                       : 2 channels\nSampling rate                    : 48.0 KHz\nStream size                      : 105 MiB (6%)\nWriting library                  : LAME3.98\nLanguage                         : English\n\nText #1\nLanguage                         : Danish\n\nText #2\nLanguage                         : Swedish\n\nText #3\nLanguage                         : Norwegian\n\nText #4\nLanguage                         : Finnish\n\n\n\n","torrent":{"xt":"urn:btih:8a4d001ac7f73874ab55f8e0db88c40f44b57bd2","amp;dn":"The+Butterfly+Effect-Directors+Cut+.2004.+%5Bx264%5D%5BAC3%5D+Nordic_Sub","amp;tr":["udp%3A%2F%2Ftracker.openbittorrent.com%3A80","udp%3A%2F%2Fopen.demonii.com%3A1337","udp%3A%2F%2Ftracker.coppersurfer.tk%3A6969","udp%3A%2F%2Fexodus.desync.com%3A6969"],"infoHash":"8a4d001ac7f73874ab55f8e0db88c40f44b57bd2","infoHashBuffer":{"type":"Buffer","data":[138,77,0,26,199,247,56,116,171,85,248,224,219,136,196,15,68,181,123,210]},"announce":[],"urlList":[]}}